<mxfile host="app.diagrams.net" modified="2024-01-15T05:36:17.134Z" agent="Mozilla/5.0 (Windows NT 10.0; Win64; x64) AppleWebKit/537.36 (KHTML, like Gecko) Chrome/120.0.0.0 Safari/537.36 Edg/120.0.0.0" etag="sKVvtdgC99TOatCce4aV" version="22.1.18" type="github">
  <diagram name="Page-1" id="mjMANnZP1bLLyK4KJlOx">
    <mxGraphModel dx="1533" dy="953" grid="1" gridSize="10" guides="1" tooltips="1" connect="1" arrows="1" fold="1" page="1" pageScale="1" pageWidth="827" pageHeight="1169" math="0" shadow="0">
      <root>
        <mxCell id="0" />
        <mxCell id="1" parent="0" />
        <mxCell id="utsJGFynIXkWQ6KnZSCp-1" value="" style="edgeStyle=orthogonalEdgeStyle;rounded=0;orthogonalLoop=1;jettySize=auto;html=1;" edge="1" parent="1" source="utsJGFynIXkWQ6KnZSCp-2" target="utsJGFynIXkWQ6KnZSCp-4">
          <mxGeometry relative="1" as="geometry" />
        </mxCell>
        <mxCell id="utsJGFynIXkWQ6KnZSCp-2" value="电池工作原理" style="rounded=0;whiteSpace=wrap;html=1;rotation=0;" vertex="1" parent="1">
          <mxGeometry x="120.5" y="290" width="112.5" height="30" as="geometry" />
        </mxCell>
        <mxCell id="utsJGFynIXkWQ6KnZSCp-3" value="" style="edgeStyle=orthogonalEdgeStyle;rounded=0;orthogonalLoop=1;jettySize=auto;html=1;" edge="1" parent="1" source="utsJGFynIXkWQ6KnZSCp-4" target="utsJGFynIXkWQ6KnZSCp-5">
          <mxGeometry relative="1" as="geometry" />
        </mxCell>
        <mxCell id="utsJGFynIXkWQ6KnZSCp-4" value="电池性能实验" style="rounded=0;whiteSpace=wrap;html=1;rotation=0;" vertex="1" parent="1">
          <mxGeometry x="283" y="290" width="112.5" height="30" as="geometry" />
        </mxCell>
        <mxCell id="utsJGFynIXkWQ6KnZSCp-5" value="电池性能分析" style="rounded=0;whiteSpace=wrap;html=1;rotation=0;" vertex="1" parent="1">
          <mxGeometry x="441.75" y="290" width="112.5" height="30" as="geometry" />
        </mxCell>
        <mxCell id="utsJGFynIXkWQ6KnZSCp-6" value="容量特性分析" style="rounded=0;whiteSpace=wrap;html=1;rotation=0;" vertex="1" parent="1">
          <mxGeometry x="603" y="250" width="112.5" height="30" as="geometry" />
        </mxCell>
        <mxCell id="utsJGFynIXkWQ6KnZSCp-7" value="电压特性曲线分析" style="rounded=0;whiteSpace=wrap;html=1;rotation=0;" vertex="1" parent="1">
          <mxGeometry x="603" y="290" width="112.5" height="30" as="geometry" />
        </mxCell>
        <mxCell id="utsJGFynIXkWQ6KnZSCp-8" value="SOC-OCV曲线拟合" style="rounded=0;whiteSpace=wrap;html=1;rotation=0;" vertex="1" parent="1">
          <mxGeometry x="603" y="330" width="112.5" height="30" as="geometry" />
        </mxCell>
        <mxCell id="utsJGFynIXkWQ6KnZSCp-9" value="" style="endArrow=classic;html=1;rounded=0;exitX=1;exitY=0.5;exitDx=0;exitDy=0;" edge="1" parent="1" source="utsJGFynIXkWQ6KnZSCp-5">
          <mxGeometry width="50" height="50" relative="1" as="geometry">
            <mxPoint x="553" y="310" as="sourcePoint" />
            <mxPoint x="603" y="260" as="targetPoint" />
          </mxGeometry>
        </mxCell>
        <mxCell id="utsJGFynIXkWQ6KnZSCp-10" value="" style="endArrow=classic;html=1;rounded=0;exitX=1;exitY=0.5;exitDx=0;exitDy=0;entryX=0;entryY=0.5;entryDx=0;entryDy=0;" edge="1" parent="1" source="utsJGFynIXkWQ6KnZSCp-5" target="utsJGFynIXkWQ6KnZSCp-7">
          <mxGeometry width="50" height="50" relative="1" as="geometry">
            <mxPoint x="564" y="315" as="sourcePoint" />
            <mxPoint x="613" y="270" as="targetPoint" />
          </mxGeometry>
        </mxCell>
        <mxCell id="utsJGFynIXkWQ6KnZSCp-11" value="" style="endArrow=classic;html=1;rounded=0;exitX=1;exitY=0.5;exitDx=0;exitDy=0;entryX=0;entryY=0.5;entryDx=0;entryDy=0;" edge="1" parent="1" source="utsJGFynIXkWQ6KnZSCp-5" target="utsJGFynIXkWQ6KnZSCp-8">
          <mxGeometry width="50" height="50" relative="1" as="geometry">
            <mxPoint x="574" y="325" as="sourcePoint" />
            <mxPoint x="623" y="280" as="targetPoint" />
          </mxGeometry>
        </mxCell>
        <mxCell id="utsJGFynIXkWQ6KnZSCp-12" value="" style="endArrow=none;dashed=1;html=1;dashPattern=1 3;strokeWidth=2;rounded=0;" edge="1" parent="1">
          <mxGeometry width="50" height="50" relative="1" as="geometry">
            <mxPoint x="98" y="230" as="sourcePoint" />
            <mxPoint x="738" y="230" as="targetPoint" />
          </mxGeometry>
        </mxCell>
        <mxCell id="utsJGFynIXkWQ6KnZSCp-13" value="" style="endArrow=none;dashed=1;html=1;dashPattern=1 3;strokeWidth=2;rounded=0;" edge="1" parent="1">
          <mxGeometry width="50" height="50" relative="1" as="geometry">
            <mxPoint x="100" y="380" as="sourcePoint" />
            <mxPoint x="748" y="380" as="targetPoint" />
          </mxGeometry>
        </mxCell>
        <mxCell id="utsJGFynIXkWQ6KnZSCp-14" value="" style="endArrow=none;dashed=1;html=1;dashPattern=1 3;strokeWidth=2;rounded=0;" edge="1" parent="1">
          <mxGeometry width="50" height="50" relative="1" as="geometry">
            <mxPoint x="100" y="230" as="sourcePoint" />
            <mxPoint x="100" y="380" as="targetPoint" />
          </mxGeometry>
        </mxCell>
        <mxCell id="utsJGFynIXkWQ6KnZSCp-15" value="" style="endArrow=none;dashed=1;html=1;dashPattern=1 3;strokeWidth=2;rounded=0;" edge="1" parent="1">
          <mxGeometry width="50" height="50" relative="1" as="geometry">
            <mxPoint x="740" y="230" as="sourcePoint" />
            <mxPoint x="740" y="380" as="targetPoint" />
          </mxGeometry>
        </mxCell>
      </root>
    </mxGraphModel>
  </diagram>
</mxfile>
